<svg width="304" height="305" viewBox="0 0 304 305" fill="none" xmlns="http://www.w3.org/2000/svg">
<path d="M304 152.5C304 236.723 235.947 305 152 305C68.0527 305 0 236.723 0 152.5C0 68.2766 68.0527 0 152 0C235.947 0 304 68.2766 304 152.5Z" fill="#EACB5E"/>
<path d="M276 153C276 230.32 214.215 293 138 293C61.7847 293 0 230.32 0 153C0 75.6801 61.7847 13 138 13C214.215 13 276 75.6801 276 153Z" fill="#FFDA58"/>
<path d="M187.22 190.44C187.22 197.493 185.303 204.01 181.47 209.99C177.79 215.97 172.5 220.877 165.6 224.71C158.853 228.543 151.033 230.92 142.14 231.84V257.83C142.14 259.823 141.45 261.433 140.07 262.66C138.843 264.04 137.233 264.73 135.24 264.73C133.247 264.73 131.56 264.04 130.18 262.66C128.953 261.433 128.34 259.823 128.34 257.83V232.07C118.68 231.457 110.017 229.31 102.35 225.63C94.6833 221.95 87.2467 216.583 80.04 209.53C78.2 207.997 77.28 206.157 77.28 204.01C77.28 202.17 77.97 200.483 79.35 198.95C80.8833 197.417 82.57 196.65 84.41 196.65C86.25 196.65 87.9367 197.417 89.47 198.95C100.203 210.603 113.16 217.12 128.34 218.5V154.1C113.927 149.653 102.887 144.133 95.22 137.54C87.5533 130.947 83.72 121.287 83.72 108.56C83.72 97.3667 87.7833 88.0133 95.91 80.5C104.037 72.8333 114.847 68.3867 128.34 67.16V49.45C128.34 47.4567 128.953 45.8467 130.18 44.62C131.56 43.24 133.247 42.55 135.24 42.55C137.233 42.55 138.843 43.24 140.07 44.62C141.45 45.8467 142.14 47.4567 142.14 49.45V66.93C150.267 67.6967 157.857 69.6133 164.91 72.68C171.963 75.7467 177.637 79.81 181.93 84.87C184.23 87.4767 185.38 89.7 185.38 91.54C185.38 93.2267 184.613 94.8367 183.08 96.37C181.547 97.75 179.86 98.44 178.02 98.44C176.487 98.44 175.183 97.9033 174.11 96.83C170.583 92.5367 165.983 88.9333 160.31 86.02C154.637 83.1067 148.58 81.3433 142.14 80.73V143.29C151.647 146.203 159.543 149.423 165.83 152.95C172.27 156.323 177.407 161.077 181.24 167.21C185.227 173.19 187.22 180.933 187.22 190.44ZM97.98 108.1C97.98 115.767 100.587 121.9 105.8 126.5C111.167 131.1 118.68 135.163 128.34 138.69V80.73C119.14 81.8033 111.78 84.7933 106.26 89.7C100.74 94.4533 97.98 100.587 97.98 108.1ZM142.14 218.27C151.187 217.043 158.547 213.977 164.22 209.07C169.893 204.01 172.73 197.8 172.73 190.44C172.577 182.467 169.893 176.103 164.68 171.35C159.467 166.443 151.953 162.15 142.14 158.47V218.27Z" fill="white"/>
</svg>
